<svg xmlns="http://www.w3.org/2000/svg" viewBox="0 0 368 96" role="img" aria-label="ShiftSight">
  <defs>
    <linearGradient id="logo-fill" x1="15" y1="20" x2="78" y2="78" gradientUnits="userSpaceOnUse">
      <stop stop-color="#EAF8FF"/>
      <stop offset="0.48" stop-color="#8BDBF8"/>
      <stop offset="1" stop-color="#5A74FF"/>
    </linearGradient>
    <linearGradient id="logo-shadow" x1="21" y1="23" x2="75" y2="73" gradientUnits="userSpaceOnUse">
      <stop stop-color="#182632"/>
      <stop offset="1" stop-color="#070A0E"/>
    </linearGradient>
    <linearGradient id="logo-accent" x1="110" y1="76" x2="344" y2="76" gradientUnits="userSpaceOnUse">
      <stop stop-color="#8BDBF8"/>
      <stop offset="0.52" stop-color="#5A74FF"/>
      <stop offset="1" stop-color="#EE5DAC"/>
    </linearGradient>
  </defs>
  <g transform="translate(0 4)">
    <path
      fill="url(#logo-fill)"
      d="M9 50c10.9-18.1 27-27.1 48.1-27.1 13.9 0 24.4 5.5 31.5 16.4 1.4 2.2 1.4 5.1-.1 7.2-11.1 17.7-27.2 26.6-48.3 26.6-13.7 0-24.2-5.4-31.2-16.2A6.4 6.4 0 0 1 9 50Z"
    />
    <path
      fill="url(#logo-shadow)"
      d="M18.9 50.4c9.2-12.3 22-18.4 38.3-18.4 9 0 16.1 2.7 21.4 8.2-9 12.4-21.7 18.6-38.2 18.6-9.1 0-16.3-2.8-21.5-8.4Z"
    />
    <path
      fill="#EAF8FF"
      d="M34.4 50.2c4.7-7.6 11.3-11.4 19.8-11.4 3.2 0 6.3.7 9.3 2.1A18.8 18.8 0 0 0 53.7 58c0 3.8 1 7.4 3.1 10.5a25.7 25.7 0 0 1-5.1.5c-8.6 0-14.3-4.2-17.3-12.5a8.4 8.4 0 0 1 0-6.3Z"
    />
    <path
      fill="#061015"
      d="M47.4 39.4a18.6 18.6 0 0 0-10.8 17c0 8.5 5.8 14.2 15 14.2 5.5 0 10.3-1.8 14.6-5.4-1.2.2-2.5.3-3.8.3-11.2 0-18.6-7.2-18.6-17.6 0-3.1 1.2-5.9 3.6-8.5Z"
    />
    <path
      fill="#B8EDFF"
      d="M36 53.5c2.8-4.9 7.2-8.4 13.1-10.6-4.2 3.3-6.2 7.4-6.2 12.4 0 4.5 1.8 8.1 5.3 10.8-6.4-1-10.5-5.2-12.2-12.6Z"
      opacity=".7"
    />
  </g>
  <text
    x="112"
    y="56"
    fill="#F8FBFF"
    font-family="Inter, SF Pro Display, Segoe UI, Arial, sans-serif"
    font-size="42"
    font-weight="760"
    letter-spacing="0"
  >ShiftSight</text>
  <path d="M114 71h120c18 0 34-3.7 48-11" stroke="url(#logo-accent)" stroke-width="5" stroke-linecap="round" opacity=".9"/>
</svg>
